<svg xmlns="http://www.w3.org/2000/svg" viewBox="0 0 48 48" fill="none" aria-hidden="true">
  <g transform="translate(24 25) rotate(-32) translate(-24 -25)">
    <path fill="currentColor" fill-opacity="0.22" d="M30.5 27.2 38 24.8l1.2 2.4-7.2 3.2-1.5-3.2Z"/>
    <path fill="currentColor" d="M10.5 24.8a2 2 0 0 1 2-2h3.4l9.8-6.4a2.4 2.4 0 0 1 2.6.35l9.2 6.6h7.6a2.8 2.8 0 0 1 0 5.6h-7.4l-9 6.5a2.4 2.4 0 0 1-2.6.3l-9.6-6.2H12.5a2 2 0 0 1-2-2Z"/>
    <path fill="currentColor" fill-opacity="0.55" d="M17.2 20.4 22.8 17.6l4.8 3.4-3.1 1.8-7.3-2.4Z"/>
    <path fill="currentColor" d="M34.8 22.4h3.6l1.8 2.6-1.8 2.6h-3.6l-1.2-2.6 1.2-2.6Z"/>
    <circle cx="21.2" cy="19.6" r="1.1" fill="currentColor" fill-opacity="0.65"/>
  </g>
</svg>
